<svg xmlns="http://www.w3.org/2000/svg"  viewBox="0 0 64 64"><defs fill="#A6A299" /><path  d="m40,32c0,3.36-2.07,6.23-5,7.41v16.59h-6v-16.59c-2.93-1.19-5-4.06-5-7.41,0-4.42,3.58-8,8-8s8,3.58,8,8Zm-23.56-15.56l-4.24-4.24c-5.47,5.47-8.2,12.63-8.2,19.8s2.73,14.33,8.2,19.8l4.24-4.24c-4.3-4.3-6.44-9.93-6.44-15.56s2.15-11.26,6.44-15.56Zm2.83,2.83c-3.51,3.51-5.27,8.12-5.27,12.73s1.76,9.21,5.27,12.73l4.24-4.24c-2.34-2.34-3.51-5.41-3.51-8.49s1.17-6.14,3.51-8.49l-4.24-4.24Zm25.46,0l-4.24,4.24c2.34,2.34,3.51,5.41,3.51,8.49s-1.17,6.14-3.51,8.49l4.24,4.24c3.51-3.51,5.27-8.12,5.27-12.73s-1.76-9.21-5.27-12.73Zm7.07-7.07l-4.24,4.24c4.3,4.3,6.44,9.93,6.44,15.56s-2.15,11.26-6.44,15.56l4.24,4.24c5.47-5.47,8.2-12.63,8.2-19.8s-2.73-14.33-8.2-19.8Z" fill="#A6A299" /></svg>